<svg width="32" height="32" viewBox="0 0 32 32" fill="none" xmlns="http://www.w3.org/2000/svg">
<path d="M31.6636 0H0.212982V32H31.6636V0Z" fill="white"/>
<g clip-path="url(#clip0)">
<path d="M22.418 12.7411C22.4281 12.8832 22.4281 13.0253 22.4281 13.1675C22.4281 17.5025 19.1508 22.4974 13.1609 22.4974C11.3156 22.4974 9.60129 21.9593 8.15927 21.0253C8.42146 21.0558 8.67354 21.0659 8.94582 21.0659C10.4685 21.0659 11.8702 20.5482 12.9895 19.6649C11.5576 19.6345 10.3576 18.6903 9.94412 17.3908C10.1458 17.4213 10.3475 17.4416 10.5593 17.4416C10.8517 17.4416 11.1442 17.4009 11.4164 17.3299C9.92398 17.0253 8.80462 15.7055 8.80462 14.1116V14.071C9.23821 14.3147 9.74246 14.467 10.2769 14.4873C9.39956 13.8984 8.8248 12.8933 8.8248 11.7563C8.8248 11.1472 8.98611 10.5888 9.26848 10.1015C10.8718 12.0913 13.2819 13.3908 15.9844 13.5329C15.934 13.2893 15.9037 13.0355 15.9037 12.7817C15.9037 10.9746 17.3558 9.5025 19.1609 9.5025C20.0987 9.5025 20.9457 9.89844 21.5407 10.538C22.2768 10.3959 22.9827 10.1218 23.6079 9.74616C23.3659 10.5076 22.8516 11.1472 22.176 11.5533C22.8314 11.4822 23.4667 11.2994 24.0516 11.0457C23.608 11.6954 23.0533 12.274 22.418 12.7411Z" fill="black"/>
</g>
<defs>
<clipPath id="clip0">
<rect width="15.8924" height="16" fill="white" transform="translate(8.15927 8)"/>
</clipPath>
</defs>
</svg>
